# xmcd
#
# Track frame offsets:
#	150
#	41732
#	56818
#	71235
#	92280
#	109188
#	126161
#	146595
#	168304
#	184018
#	199042
#	215733
#	234589
#	250953
#	270577
#	288478
#	305213
#
# Disc length: 4315
#
# Revision: 4
# Processed by: cddbd v1.5.1PL0 Copyright (c) Steve Scherf et al.
# Submitted via: CDex 1.50
# Normalized: r3:DSETVAR1
#
DISCID=0b10d911
DTITLE=Various Artist - Super Caribe 2 (Disc1)
DYEAR=2000
DGENRE=Salsa
TTITLE0=Super Caribe 2 Mix - MegaMix By J.Mª Castells and Toni Perey
TTITLE1=King Afrika - La Bomba
TTITLE2=Los Argentinos - Para No Verte Más
TTITLE3=Proyecto Uno - 25H
TTITLE4=Michael Chacon - La Vida Es Un Carnaval
TTITLE5=Lucia Moreno - Para Toda La Vida
TTITLE6=El Simbolo - Levantando Las Manos (Oye Este Canto)
TTITLE7=Barabba - Corazón Espinado
TTITLE8=Banda Alegria - Mucho Mambo
TTITLE9=Los Merengues - El Baile Del Ocho
TTITLE10=Xandro Y Su Punto - Comprate Un Perro
TTITLE11=S.B.S. - Dale Candela
TTITLE12=Miami Boy - Be With You
TTITLE13=Guajiro - Fruta Fresca
TTITLE14=Angelitos Negros - Mi Corazón
TTITLE15=Los Canibales - Borriquito
TTITLE16=Jessica - Una Noche Más
EXTD=YEAR: 2000
EXTT0=
EXTT1=
EXTT2=
EXTT3=
EXTT4=
EXTT5=
EXTT6=
EXTT7=
EXTT8=
EXTT9=
EXTT10=
EXTT11=
EXTT12=
EXTT13=
EXTT14=
EXTT15=
EXTT16=
PLAYORDER=
